<?xml version="1.0" encoding="UTF-8" standalone="no"?>
<!DOCTYPE svg PUBLIC "-//W3C//DTD SVG 1.1//EN"
 "http://www.w3.org/Graphics/SVG/1.1/DTD/svg11.dtd">
<!-- Generated by graphviz version 2.44.1 (20200629.0846)
 -->
<!-- Title: snakemake_dag Pages: 1 -->
<svg width="1374pt" height="337pt"
 viewBox="0.00 0.00 1374.00 337.00" xmlns="http://www.w3.org/2000/svg" xmlns:xlink="http://www.w3.org/1999/xlink">
<g id="graph0" class="graph" transform="scale(1 1) rotate(0) translate(4 333)">
<title>snakemake_dag</title>
<polygon fill="white" stroke="transparent" points="-4,4 -4,-333 1370,-333 1370,4 -4,4"/>
<!-- 0 -->
<g id="node1" class="node">
<title>0</title>
<path fill="none" stroke="#56d87b" stroke-width="2" d="M683.5,-36C683.5,-36 653.5,-36 653.5,-36 647.5,-36 641.5,-30 641.5,-24 641.5,-24 641.5,-12 641.5,-12 641.5,-6 647.5,0 653.5,0 653.5,0 683.5,0 683.5,0 689.5,0 695.5,-6 695.5,-12 695.5,-12 695.5,-24 695.5,-24 695.5,-30 689.5,-36 683.5,-36"/>
<text text-anchor="middle" x="668.5" y="-15.5" font-family="sans" font-size="10.00">all</text>
</g>
<!-- 1 -->
<g id="node2" class="node">
<title>1</title>
<path fill="none" stroke="#d8a456" stroke-width="2" d="M322,-108C322,-108 147,-108 147,-108 141,-108 135,-102 135,-96 135,-96 135,-84 135,-84 135,-78 141,-72 147,-72 147,-72 322,-72 322,-72 328,-72 334,-78 334,-84 334,-84 334,-96 334,-96 334,-102 328,-108 322,-108"/>
<text text-anchor="middle" x="234.5" y="-87.5" font-family="sans" font-size="10.00">transform_dependent_images_to_fda</text>
</g>
<!-- 1&#45;&gt;0 -->
<g id="edge1" class="edge">
<title>1&#45;&gt;0</title>
<path fill="none" stroke="grey" stroke-width="2" d="M334.07,-72.94C428.66,-57.68 565.84,-35.56 631.19,-25.02"/>
<polygon fill="grey" stroke="grey" stroke-width="2" points="632.1,-28.42 641.41,-23.37 630.98,-21.51 632.1,-28.42"/>
</g>
<!-- 2 -->
<g id="node3" class="node">
<title>2</title>
<path fill="none" stroke="#78d856" stroke-width="2" d="M618.5,-182.5C618.5,-182.5 502.5,-182.5 502.5,-182.5 496.5,-182.5 490.5,-176.5 490.5,-170.5 490.5,-170.5 490.5,-158.5 490.5,-158.5 490.5,-152.5 496.5,-146.5 502.5,-146.5 502.5,-146.5 618.5,-146.5 618.5,-146.5 624.5,-146.5 630.5,-152.5 630.5,-158.5 630.5,-158.5 630.5,-170.5 630.5,-170.5 630.5,-176.5 624.5,-182.5 618.5,-182.5"/>
<text text-anchor="middle" x="560.5" y="-162" font-family="sans" font-size="10.00">register_template_to_fda</text>
</g>
<!-- 2&#45;&gt;1 -->
<g id="edge6" class="edge">
<title>2&#45;&gt;1</title>
<path fill="none" stroke="grey" stroke-width="2" d="M491.15,-146.47C487.55,-145.63 483.98,-144.8 480.5,-144 429.62,-132.32 372.65,-120 326.35,-110.18"/>
<polygon fill="grey" stroke="grey" stroke-width="2" points="326.85,-106.7 316.34,-108.06 325.4,-113.55 326.85,-106.7"/>
</g>
<!-- 6 -->
<g id="node7" class="node">
<title>6</title>
<path fill="none" stroke="#d8a456" stroke-width="2" d="M539,-108C539,-108 364,-108 364,-108 358,-108 352,-102 352,-96 352,-96 352,-84 352,-84 352,-78 358,-72 364,-72 364,-72 539,-72 539,-72 545,-72 551,-78 551,-84 551,-84 551,-96 551,-96 551,-102 545,-108 539,-108"/>
<text text-anchor="middle" x="451.5" y="-87.5" font-family="sans" font-size="10.00">transform_dependent_images_to_fda</text>
</g>
<!-- 2&#45;&gt;6 -->
<g id="edge11" class="edge">
<title>2&#45;&gt;6</title>
<path fill="none" stroke="grey" stroke-width="2" d="M534.67,-146.32C520.01,-136.57 501.48,-124.24 485.63,-113.7"/>
<polygon fill="grey" stroke="grey" stroke-width="2" points="487.41,-110.68 477.15,-108.06 483.53,-116.51 487.41,-110.68"/>
</g>
<!-- 9 -->
<g id="node10" class="node">
<title>9</title>
<path fill="none" stroke="#d8a456" stroke-width="2" d="M756,-108C756,-108 581,-108 581,-108 575,-108 569,-102 569,-96 569,-96 569,-84 569,-84 569,-78 575,-72 581,-72 581,-72 756,-72 756,-72 762,-72 768,-78 768,-84 768,-84 768,-96 768,-96 768,-102 762,-108 756,-108"/>
<text text-anchor="middle" x="668.5" y="-87.5" font-family="sans" font-size="10.00">transform_dependent_images_to_fda</text>
</g>
<!-- 2&#45;&gt;9 -->
<g id="edge15" class="edge">
<title>2&#45;&gt;9</title>
<path fill="none" stroke="grey" stroke-width="2" d="M586.09,-146.32C600.62,-136.57 618.98,-124.24 634.68,-113.7"/>
<polygon fill="grey" stroke="grey" stroke-width="2" points="636.74,-116.54 643.09,-108.06 632.84,-110.73 636.74,-116.54"/>
</g>
<!-- 12 -->
<g id="node13" class="node">
<title>12</title>
<path fill="none" stroke="#d8a456" stroke-width="2" d="M973,-108C973,-108 798,-108 798,-108 792,-108 786,-102 786,-96 786,-96 786,-84 786,-84 786,-78 792,-72 798,-72 798,-72 973,-72 973,-72 979,-72 985,-78 985,-84 985,-84 985,-96 985,-96 985,-102 979,-108 973,-108"/>
<text text-anchor="middle" x="885.5" y="-87.5" font-family="sans" font-size="10.00">transform_dependent_images_to_fda</text>
</g>
<!-- 2&#45;&gt;12 -->
<g id="edge19" class="edge">
<title>2&#45;&gt;12</title>
<path fill="none" stroke="grey" stroke-width="2" d="M628.98,-146.46C632.54,-145.62 636.06,-144.8 639.5,-144 690.26,-132.27 747.11,-119.97 793.36,-110.17"/>
<polygon fill="grey" stroke="grey" stroke-width="2" points="794.3,-113.55 803.36,-108.06 792.86,-106.7 794.3,-113.55"/>
</g>
<!-- 15 -->
<g id="node16" class="node">
<title>15</title>
<path fill="none" stroke="#d8a456" stroke-width="2" d="M1190,-108C1190,-108 1015,-108 1015,-108 1009,-108 1003,-102 1003,-96 1003,-96 1003,-84 1003,-84 1003,-78 1009,-72 1015,-72 1015,-72 1190,-72 1190,-72 1196,-72 1202,-78 1202,-84 1202,-84 1202,-96 1202,-96 1202,-102 1196,-108 1190,-108"/>
<text text-anchor="middle" x="1102.5" y="-87.5" font-family="sans" font-size="10.00">transform_dependent_images_to_fda</text>
</g>
<!-- 2&#45;&gt;15 -->
<g id="edge23" class="edge">
<title>2&#45;&gt;15</title>
<path fill="none" stroke="grey" stroke-width="2" d="M626.74,-146.43C631.04,-145.55 635.32,-144.72 639.5,-144 792.12,-117.54 834.91,-127.75 992.67,-108.05"/>
<polygon fill="grey" stroke="grey" stroke-width="2" points="993.26,-111.51 1002.74,-106.78 992.38,-104.56 993.26,-111.51"/>
</g>
<!-- 3 -->
<g id="node4" class="node">
<title>3</title>
<path fill="none" stroke="#c6d856" stroke-width="2" d="M670.5,-329C670.5,-329 604.5,-329 604.5,-329 598.5,-329 592.5,-323 592.5,-317 592.5,-317 592.5,-305 592.5,-305 592.5,-299 598.5,-293 604.5,-293 604.5,-293 670.5,-293 670.5,-293 676.5,-293 682.5,-299 682.5,-305 682.5,-305 682.5,-317 682.5,-317 682.5,-323 676.5,-329 670.5,-329"/>
<text text-anchor="middle" x="637.5" y="-308.5" font-family="sans" font-size="10.00">build_template</text>
</g>
<!-- 3&#45;&gt;2 -->
<g id="edge8" class="edge">
<title>3&#45;&gt;2</title>
<path fill="none" stroke="grey" stroke-width="2" d="M628.36,-292.86C614.99,-267.76 589.98,-220.83 574.35,-191.48"/>
<polygon fill="grey" stroke="grey" stroke-width="2" points="577.41,-189.8 569.62,-182.62 571.24,-193.09 577.41,-189.8"/>
</g>
<!-- 5 -->
<g id="node6" class="node">
<title>5</title>
<path fill="none" stroke="#56a2d8" stroke-width="2" d="M249.5,-257C249.5,-257 61.5,-257 61.5,-257 55.5,-257 49.5,-251 49.5,-245 49.5,-245 49.5,-233 49.5,-233 49.5,-227 55.5,-221 61.5,-221 61.5,-221 249.5,-221 249.5,-221 255.5,-221 261.5,-227 261.5,-233 261.5,-233 261.5,-245 261.5,-245 261.5,-251 255.5,-257 249.5,-257"/>
<text text-anchor="middle" x="155.5" y="-242" font-family="sans" font-size="10.00">register_structural_images_to_template</text>
<text text-anchor="middle" x="155.5" y="-231" font-family="sans" font-size="10.00">sample: fly_3</text>
</g>
<!-- 3&#45;&gt;5 -->
<g id="edge10" class="edge">
<title>3&#45;&gt;5</title>
<path fill="none" stroke="grey" stroke-width="2" d="M592.15,-303.41C519.47,-292.86 374.6,-271.82 271.68,-256.87"/>
<polygon fill="grey" stroke="grey" stroke-width="2" points="271.94,-253.37 261.54,-255.4 270.93,-260.3 271.94,-253.37"/>
</g>
<!-- 8 -->
<g id="node9" class="node">
<title>8</title>
<path fill="none" stroke="#56a2d8" stroke-width="2" d="M486.5,-257C486.5,-257 298.5,-257 298.5,-257 292.5,-257 286.5,-251 286.5,-245 286.5,-245 286.5,-233 286.5,-233 286.5,-227 292.5,-221 298.5,-221 298.5,-221 486.5,-221 486.5,-221 492.5,-221 498.5,-227 498.5,-233 498.5,-233 498.5,-245 498.5,-245 498.5,-251 492.5,-257 486.5,-257"/>
<text text-anchor="middle" x="392.5" y="-242" font-family="sans" font-size="10.00">register_structural_images_to_template</text>
<text text-anchor="middle" x="392.5" y="-231" font-family="sans" font-size="10.00">sample: fly_4</text>
</g>
<!-- 3&#45;&gt;8 -->
<g id="edge14" class="edge">
<title>3&#45;&gt;8</title>
<path fill="none" stroke="grey" stroke-width="2" d="M592.28,-297.08C555.8,-286.66 503.86,-271.82 462.09,-259.88"/>
<polygon fill="grey" stroke="grey" stroke-width="2" points="462.83,-256.45 452.25,-257.07 460.9,-263.18 462.83,-256.45"/>
</g>
<!-- 11 -->
<g id="node12" class="node">
<title>11</title>
<path fill="none" stroke="#56a2d8" stroke-width="2" d="M832.5,-257C832.5,-257 644.5,-257 644.5,-257 638.5,-257 632.5,-251 632.5,-245 632.5,-245 632.5,-233 632.5,-233 632.5,-227 638.5,-221 644.5,-221 644.5,-221 832.5,-221 832.5,-221 838.5,-221 844.5,-227 844.5,-233 844.5,-233 844.5,-245 844.5,-245 844.5,-251 838.5,-257 832.5,-257"/>
<text text-anchor="middle" x="738.5" y="-242" font-family="sans" font-size="10.00">register_structural_images_to_template</text>
<text text-anchor="middle" x="738.5" y="-231" font-family="sans" font-size="10.00">sample: fly_1</text>
</g>
<!-- 3&#45;&gt;11 -->
<g id="edge18" class="edge">
<title>3&#45;&gt;11</title>
<path fill="none" stroke="grey" stroke-width="2" d="M662.21,-292.88C675.17,-283.89 691.23,-272.76 705.27,-263.03"/>
<polygon fill="grey" stroke="grey" stroke-width="2" points="707.47,-265.76 713.7,-257.19 703.48,-260.01 707.47,-265.76"/>
</g>
<!-- 14 -->
<g id="node15" class="node">
<title>14</title>
<path fill="none" stroke="#56a2d8" stroke-width="2" d="M1086.5,-257C1086.5,-257 898.5,-257 898.5,-257 892.5,-257 886.5,-251 886.5,-245 886.5,-245 886.5,-233 886.5,-233 886.5,-227 892.5,-221 898.5,-221 898.5,-221 1086.5,-221 1086.5,-221 1092.5,-221 1098.5,-227 1098.5,-233 1098.5,-233 1098.5,-245 1098.5,-245 1098.5,-251 1092.5,-257 1086.5,-257"/>
<text text-anchor="middle" x="992.5" y="-242" font-family="sans" font-size="10.00">register_structural_images_to_template</text>
<text text-anchor="middle" x="992.5" y="-231" font-family="sans" font-size="10.00">sample: fly_0</text>
</g>
<!-- 3&#45;&gt;14 -->
<g id="edge22" class="edge">
<title>3&#45;&gt;14</title>
<path fill="none" stroke="grey" stroke-width="2" d="M682.82,-301.06C736.27,-290.52 826.6,-272.71 895.96,-259.04"/>
<polygon fill="grey" stroke="grey" stroke-width="2" points="896.9,-262.42 906.03,-257.05 895.54,-255.55 896.9,-262.42"/>
</g>
<!-- 17 -->
<g id="node18" class="node">
<title>17</title>
<path fill="none" stroke="#56a2d8" stroke-width="2" d="M1336.5,-257C1336.5,-257 1148.5,-257 1148.5,-257 1142.5,-257 1136.5,-251 1136.5,-245 1136.5,-245 1136.5,-233 1136.5,-233 1136.5,-227 1142.5,-221 1148.5,-221 1148.5,-221 1336.5,-221 1336.5,-221 1342.5,-221 1348.5,-227 1348.5,-233 1348.5,-233 1348.5,-245 1348.5,-245 1348.5,-251 1342.5,-257 1336.5,-257"/>
<text text-anchor="middle" x="1242.5" y="-242" font-family="sans" font-size="10.00">register_structural_images_to_template</text>
<text text-anchor="middle" x="1242.5" y="-231" font-family="sans" font-size="10.00">sample: fly_2</text>
</g>
<!-- 3&#45;&gt;17 -->
<g id="edge26" class="edge">
<title>3&#45;&gt;17</title>
<path fill="none" stroke="grey" stroke-width="2" d="M682.57,-305.11C766.3,-295.99 951.56,-275.61 1107.5,-257 1113.66,-256.27 1119.97,-255.5 1126.34,-254.72"/>
<polygon fill="grey" stroke="grey" stroke-width="2" points="1126.9,-258.18 1136.4,-253.49 1126.04,-251.24 1126.9,-258.18"/>
</g>
<!-- 4 -->
<g id="node5" class="node">
<title>4</title>
<path fill="none" stroke="#d85656" stroke-width="2" d="M215,-185C215,-185 12,-185 12,-185 6,-185 0,-179 0,-173 0,-173 0,-156 0,-156 0,-150 6,-144 12,-144 12,-144 215,-144 215,-144 221,-144 227,-150 227,-156 227,-156 227,-173 227,-173 227,-179 221,-185 215,-185"/>
<text text-anchor="middle" x="113.5" y="-173" font-family="sans" font-size="10.00">transform_dependent_images_to_template</text>
<text text-anchor="middle" x="113.5" y="-162" font-family="sans" font-size="10.00">channel: green</text>
<text text-anchor="middle" x="113.5" y="-151" font-family="sans" font-size="10.00">image: lc11</text>
</g>
<!-- 4&#45;&gt;1 -->
<g id="edge7" class="edge">
<title>4&#45;&gt;1</title>
<path fill="none" stroke="grey" stroke-width="2" d="M146.24,-143.88C161.95,-134.47 180.85,-123.15 197.12,-113.4"/>
<polygon fill="grey" stroke="grey" stroke-width="2" points="199.07,-116.31 205.85,-108.17 195.47,-110.3 199.07,-116.31"/>
</g>
<!-- 5&#45;&gt;4 -->
<g id="edge9" class="edge">
<title>5&#45;&gt;4</title>
<path fill="none" stroke="grey" stroke-width="2" d="M145.55,-220.82C140.89,-212.78 135.22,-202.99 129.95,-193.89"/>
<polygon fill="grey" stroke="grey" stroke-width="2" points="132.91,-192.02 124.87,-185.12 126.85,-195.53 132.91,-192.02"/>
</g>
<!-- 6&#45;&gt;0 -->
<g id="edge2" class="edge">
<title>6&#45;&gt;0</title>
<path fill="none" stroke="grey" stroke-width="2" d="M504.31,-71.97C543.7,-59.26 596.53,-42.22 631.5,-30.94"/>
<polygon fill="grey" stroke="grey" stroke-width="2" points="632.86,-34.17 641.3,-27.77 630.71,-27.51 632.86,-34.17"/>
</g>
<!-- 7 -->
<g id="node8" class="node">
<title>7</title>
<path fill="none" stroke="#d85656" stroke-width="2" d="M460,-185C460,-185 257,-185 257,-185 251,-185 245,-179 245,-173 245,-173 245,-156 245,-156 245,-150 251,-144 257,-144 257,-144 460,-144 460,-144 466,-144 472,-150 472,-156 472,-156 472,-173 472,-173 472,-179 466,-185 460,-185"/>
<text text-anchor="middle" x="358.5" y="-173" font-family="sans" font-size="10.00">transform_dependent_images_to_template</text>
<text text-anchor="middle" x="358.5" y="-162" font-family="sans" font-size="10.00">channel: green</text>
<text text-anchor="middle" x="358.5" y="-151" font-family="sans" font-size="10.00">image: lc11</text>
</g>
<!-- 7&#45;&gt;6 -->
<g id="edge12" class="edge">
<title>7&#45;&gt;6</title>
<path fill="none" stroke="grey" stroke-width="2" d="M383.91,-143.69C395.54,-134.63 409.39,-123.83 421.52,-114.37"/>
<polygon fill="grey" stroke="grey" stroke-width="2" points="423.86,-116.99 429.59,-108.08 419.55,-111.47 423.86,-116.99"/>
</g>
<!-- 8&#45;&gt;7 -->
<g id="edge13" class="edge">
<title>8&#45;&gt;7</title>
<path fill="none" stroke="grey" stroke-width="2" d="M384.44,-220.82C380.71,-212.86 376.18,-203.19 371.95,-194.18"/>
<polygon fill="grey" stroke="grey" stroke-width="2" points="375.12,-192.69 367.7,-185.12 368.78,-195.66 375.12,-192.69"/>
</g>
<!-- 9&#45;&gt;0 -->
<g id="edge3" class="edge">
<title>9&#45;&gt;0</title>
<path fill="none" stroke="grey" stroke-width="2" d="M668.5,-71.7C668.5,-63.98 668.5,-54.71 668.5,-46.11"/>
<polygon fill="grey" stroke="grey" stroke-width="2" points="672,-46.1 668.5,-36.1 665,-46.1 672,-46.1"/>
</g>
<!-- 10 -->
<g id="node11" class="node">
<title>10</title>
<path fill="none" stroke="#d85656" stroke-width="2" d="M864,-185C864,-185 661,-185 661,-185 655,-185 649,-179 649,-173 649,-173 649,-156 649,-156 649,-150 655,-144 661,-144 661,-144 864,-144 864,-144 870,-144 876,-150 876,-156 876,-156 876,-173 876,-173 876,-179 870,-185 864,-185"/>
<text text-anchor="middle" x="762.5" y="-173" font-family="sans" font-size="10.00">transform_dependent_images_to_template</text>
<text text-anchor="middle" x="762.5" y="-162" font-family="sans" font-size="10.00">channel: green</text>
<text text-anchor="middle" x="762.5" y="-151" font-family="sans" font-size="10.00">image: lc11</text>
</g>
<!-- 10&#45;&gt;9 -->
<g id="edge16" class="edge">
<title>10&#45;&gt;9</title>
<path fill="none" stroke="grey" stroke-width="2" d="M736.81,-143.69C725.07,-134.63 711.06,-123.83 698.8,-114.37"/>
<polygon fill="grey" stroke="grey" stroke-width="2" points="700.7,-111.41 690.64,-108.08 696.42,-116.96 700.7,-111.41"/>
</g>
<!-- 11&#45;&gt;10 -->
<g id="edge17" class="edge">
<title>11&#45;&gt;10</title>
<path fill="none" stroke="grey" stroke-width="2" d="M744.19,-220.82C746.77,-213.03 749.89,-203.6 752.82,-194.75"/>
<polygon fill="grey" stroke="grey" stroke-width="2" points="756.19,-195.71 756.01,-185.12 749.54,-193.51 756.19,-195.71"/>
</g>
<!-- 12&#45;&gt;0 -->
<g id="edge4" class="edge">
<title>12&#45;&gt;0</title>
<path fill="none" stroke="grey" stroke-width="2" d="M832.69,-71.97C793.3,-59.26 740.47,-42.22 705.5,-30.94"/>
<polygon fill="grey" stroke="grey" stroke-width="2" points="706.29,-27.51 695.7,-27.77 704.14,-34.17 706.29,-27.51"/>
</g>
<!-- 13 -->
<g id="node14" class="node">
<title>13</title>
<path fill="none" stroke="#d85656" stroke-width="2" d="M1109,-185C1109,-185 906,-185 906,-185 900,-185 894,-179 894,-173 894,-173 894,-156 894,-156 894,-150 900,-144 906,-144 906,-144 1109,-144 1109,-144 1115,-144 1121,-150 1121,-156 1121,-156 1121,-173 1121,-173 1121,-179 1115,-185 1109,-185"/>
<text text-anchor="middle" x="1007.5" y="-173" font-family="sans" font-size="10.00">transform_dependent_images_to_template</text>
<text text-anchor="middle" x="1007.5" y="-162" font-family="sans" font-size="10.00">channel: green</text>
<text text-anchor="middle" x="1007.5" y="-151" font-family="sans" font-size="10.00">image: lc11</text>
</g>
<!-- 13&#45;&gt;12 -->
<g id="edge20" class="edge">
<title>13&#45;&gt;12</title>
<path fill="none" stroke="grey" stroke-width="2" d="M974.49,-143.88C958.65,-134.47 939.6,-123.15 923.19,-113.4"/>
<polygon fill="grey" stroke="grey" stroke-width="2" points="924.77,-110.27 914.39,-108.17 921.2,-116.28 924.77,-110.27"/>
</g>
<!-- 14&#45;&gt;13 -->
<g id="edge21" class="edge">
<title>14&#45;&gt;13</title>
<path fill="none" stroke="grey" stroke-width="2" d="M996.05,-220.82C997.65,-213.11 999.58,-203.8 1001.39,-195.03"/>
<polygon fill="grey" stroke="grey" stroke-width="2" points="1004.84,-195.62 1003.44,-185.12 997.99,-194.2 1004.84,-195.62"/>
</g>
<!-- 15&#45;&gt;0 -->
<g id="edge5" class="edge">
<title>15&#45;&gt;0</title>
<path fill="none" stroke="grey" stroke-width="2" d="M1002.93,-72.94C908.34,-57.68 771.16,-35.56 705.81,-25.02"/>
<polygon fill="grey" stroke="grey" stroke-width="2" points="706.02,-21.51 695.59,-23.37 704.9,-28.42 706.02,-21.51"/>
</g>
<!-- 16 -->
<g id="node17" class="node">
<title>16</title>
<path fill="none" stroke="#d85656" stroke-width="2" d="M1354,-185C1354,-185 1151,-185 1151,-185 1145,-185 1139,-179 1139,-173 1139,-173 1139,-156 1139,-156 1139,-150 1145,-144 1151,-144 1151,-144 1354,-144 1354,-144 1360,-144 1366,-150 1366,-156 1366,-156 1366,-173 1366,-173 1366,-179 1360,-185 1354,-185"/>
<text text-anchor="middle" x="1252.5" y="-173" font-family="sans" font-size="10.00">transform_dependent_images_to_template</text>
<text text-anchor="middle" x="1252.5" y="-162" font-family="sans" font-size="10.00">channel: green</text>
<text text-anchor="middle" x="1252.5" y="-151" font-family="sans" font-size="10.00">image: lc11</text>
</g>
<!-- 16&#45;&gt;15 -->
<g id="edge24" class="edge">
<title>16&#45;&gt;15</title>
<path fill="none" stroke="grey" stroke-width="2" d="M1211.91,-143.88C1191.89,-134.21 1167.71,-122.52 1147.17,-112.59"/>
<polygon fill="grey" stroke="grey" stroke-width="2" points="1148.54,-109.37 1138.02,-108.17 1145.5,-115.67 1148.54,-109.37"/>
</g>
<!-- 17&#45;&gt;16 -->
<g id="edge25" class="edge">
<title>17&#45;&gt;16</title>
<path fill="none" stroke="grey" stroke-width="2" d="M1244.87,-220.82C1245.93,-213.11 1247.22,-203.8 1248.43,-195.03"/>
<polygon fill="grey" stroke="grey" stroke-width="2" points="1251.89,-195.5 1249.79,-185.12 1244.96,-194.55 1251.89,-195.5"/>
</g>
</g>
</svg>
