<?xml version="1.0" encoding="UTF-8" standalone="no"?>
<!DOCTYPE svg PUBLIC "-//W3C//DTD SVG 1.1//EN"
 "http://www.w3.org/Graphics/SVG/1.1/DTD/svg11.dtd">
<!-- Generated by graphviz version 2.44.1 (20200629.0846)
 -->
<!-- Title: snakemake_dag Pages: 1 -->
<svg width="2104pt" height="337pt"
 viewBox="0.00 0.00 2104.00 337.00" xmlns="http://www.w3.org/2000/svg" xmlns:xlink="http://www.w3.org/1999/xlink">
<g id="graph0" class="graph" transform="scale(1 1) rotate(0) translate(4 333)">
<title>snakemake_dag</title>
<polygon fill="white" stroke="transparent" points="-4,4 -4,-333 2100,-333 2100,4 -4,4"/>
<!-- 0 -->
<g id="node1" class="node">
<title>0</title>
<path fill="none" stroke="#56d87b" stroke-width="2" d="M1050.5,-36C1050.5,-36 1020.5,-36 1020.5,-36 1014.5,-36 1008.5,-30 1008.5,-24 1008.5,-24 1008.5,-12 1008.5,-12 1008.5,-6 1014.5,0 1020.5,0 1020.5,0 1050.5,0 1050.5,0 1056.5,0 1062.5,-6 1062.5,-12 1062.5,-12 1062.5,-24 1062.5,-24 1062.5,-30 1056.5,-36 1050.5,-36"/>
<text text-anchor="middle" x="1035.5" y="-15.5" font-family="sans" font-size="10.00">all</text>
</g>
<!-- 1 -->
<g id="node2" class="node">
<title>1</title>
<path fill="none" stroke="#78d856" stroke-width="2" d="M332,-108C332,-108 179,-108 179,-108 173,-108 167,-102 167,-96 167,-96 167,-84 167,-84 167,-78 173,-72 179,-72 179,-72 332,-72 332,-72 338,-72 344,-78 344,-84 344,-84 344,-96 344,-96 344,-102 338,-108 332,-108"/>
<text text-anchor="middle" x="255.5" y="-87.5" font-family="sans" font-size="10.00">transform_dependent_images_to_fda</text>
</g>
<!-- 1&#45;&gt;0 -->
<g id="edge1" class="edge">
<title>1&#45;&gt;0</title>
<path fill="none" stroke="grey" stroke-width="2" d="M344.25,-73.09C347.03,-72.71 349.79,-72.34 352.5,-72 597.81,-41.06 895.12,-25.42 998.2,-20.63"/>
<polygon fill="grey" stroke="grey" stroke-width="2" points="998.57,-24.12 1008.4,-20.17 998.25,-17.13 998.57,-24.12"/>
</g>
<!-- 2 -->
<g id="node3" class="node">
<title>2</title>
<path fill="none" stroke="#d8a456" stroke-width="2" stroke-dasharray="5,2" d="M988.5,-182.5C988.5,-182.5 888.5,-182.5 888.5,-182.5 882.5,-182.5 876.5,-176.5 876.5,-170.5 876.5,-170.5 876.5,-158.5 876.5,-158.5 876.5,-152.5 882.5,-146.5 888.5,-146.5 888.5,-146.5 988.5,-146.5 988.5,-146.5 994.5,-146.5 1000.5,-152.5 1000.5,-158.5 1000.5,-158.5 1000.5,-170.5 1000.5,-170.5 1000.5,-176.5 994.5,-182.5 988.5,-182.5"/>
<text text-anchor="middle" x="938.5" y="-162" font-family="sans" font-size="10.00">register_template_to_fda</text>
</g>
<!-- 2&#45;&gt;1 -->
<g id="edge10" class="edge">
<title>2&#45;&gt;1</title>
<path fill="none" stroke="grey" stroke-width="2" d="M878.98,-146.42C874.78,-145.51 870.59,-144.69 866.5,-144 644,-106.45 581.63,-134.94 354.49,-108.16"/>
<polygon fill="grey" stroke="grey" stroke-width="2" points="354.6,-104.65 344.25,-106.93 353.76,-111.6 354.6,-104.65"/>
</g>
<!-- 6 -->
<g id="node7" class="node">
<title>6</title>
<path fill="none" stroke="#78d856" stroke-width="2" d="M527,-108C527,-108 374,-108 374,-108 368,-108 362,-102 362,-96 362,-96 362,-84 362,-84 362,-78 368,-72 374,-72 374,-72 527,-72 527,-72 533,-72 539,-78 539,-84 539,-84 539,-96 539,-96 539,-102 533,-108 527,-108"/>
<text text-anchor="middle" x="450.5" y="-87.5" font-family="sans" font-size="10.00">transform_dependent_images_to_fda</text>
</g>
<!-- 2&#45;&gt;6 -->
<g id="edge15" class="edge">
<title>2&#45;&gt;6</title>
<path fill="none" stroke="grey" stroke-width="2" d="M878.16,-146.44C874.23,-145.55 870.32,-144.73 866.5,-144 729.5,-117.87 690.46,-127.85 548.93,-108.15"/>
<polygon fill="grey" stroke="grey" stroke-width="2" points="549.4,-104.68 539.01,-106.74 548.42,-111.61 549.4,-104.68"/>
</g>
<!-- 9 -->
<g id="node10" class="node">
<title>9</title>
<path fill="none" stroke="#78d856" stroke-width="2" d="M722,-108C722,-108 569,-108 569,-108 563,-108 557,-102 557,-96 557,-96 557,-84 557,-84 557,-78 563,-72 569,-72 569,-72 722,-72 722,-72 728,-72 734,-78 734,-84 734,-84 734,-96 734,-96 734,-102 728,-108 722,-108"/>
<text text-anchor="middle" x="645.5" y="-87.5" font-family="sans" font-size="10.00">transform_dependent_images_to_fda</text>
</g>
<!-- 2&#45;&gt;9 -->
<g id="edge19" class="edge">
<title>2&#45;&gt;9</title>
<path fill="none" stroke="grey" stroke-width="2" d="M876.48,-146.58C873.1,-145.7 869.76,-144.83 866.5,-144 821.02,-132.39 770.09,-120.13 728.59,-110.32"/>
<polygon fill="grey" stroke="grey" stroke-width="2" points="729.33,-106.9 718.8,-108.01 727.73,-113.71 729.33,-106.9"/>
</g>
<!-- 12 -->
<g id="node13" class="node">
<title>12</title>
<path fill="none" stroke="#78d856" stroke-width="2" d="M917,-108C917,-108 764,-108 764,-108 758,-108 752,-102 752,-96 752,-96 752,-84 752,-84 752,-78 758,-72 764,-72 764,-72 917,-72 917,-72 923,-72 929,-78 929,-84 929,-84 929,-96 929,-96 929,-102 923,-108 917,-108"/>
<text text-anchor="middle" x="840.5" y="-87.5" font-family="sans" font-size="10.00">transform_dependent_images_to_fda</text>
</g>
<!-- 2&#45;&gt;12 -->
<g id="edge23" class="edge">
<title>2&#45;&gt;12</title>
<path fill="none" stroke="grey" stroke-width="2" d="M915.28,-146.32C902.34,-136.75 886.05,-124.7 871.98,-114.29"/>
<polygon fill="grey" stroke="grey" stroke-width="2" points="873.68,-111.19 863.56,-108.06 869.52,-116.82 873.68,-111.19"/>
</g>
<!-- 15 -->
<g id="node16" class="node">
<title>15</title>
<path fill="none" stroke="#78d856" stroke-width="2" d="M1112,-108C1112,-108 959,-108 959,-108 953,-108 947,-102 947,-96 947,-96 947,-84 947,-84 947,-78 953,-72 959,-72 959,-72 1112,-72 1112,-72 1118,-72 1124,-78 1124,-84 1124,-84 1124,-96 1124,-96 1124,-102 1118,-108 1112,-108"/>
<text text-anchor="middle" x="1035.5" y="-87.5" font-family="sans" font-size="10.00">transform_dependent_images_to_fda</text>
</g>
<!-- 2&#45;&gt;15 -->
<g id="edge27" class="edge">
<title>2&#45;&gt;15</title>
<path fill="none" stroke="grey" stroke-width="2" d="M961.49,-146.32C974.29,-136.75 990.41,-124.7 1004.34,-114.29"/>
<polygon fill="grey" stroke="grey" stroke-width="2" points="1006.76,-116.85 1012.68,-108.06 1002.57,-111.24 1006.76,-116.85"/>
</g>
<!-- 18 -->
<g id="node19" class="node">
<title>18</title>
<path fill="none" stroke="#78d856" stroke-width="2" d="M1307,-108C1307,-108 1154,-108 1154,-108 1148,-108 1142,-102 1142,-96 1142,-96 1142,-84 1142,-84 1142,-78 1148,-72 1154,-72 1154,-72 1307,-72 1307,-72 1313,-72 1319,-78 1319,-84 1319,-84 1319,-96 1319,-96 1319,-102 1313,-108 1307,-108"/>
<text text-anchor="middle" x="1230.5" y="-87.5" font-family="sans" font-size="10.00">transform_dependent_images_to_fda</text>
</g>
<!-- 2&#45;&gt;18 -->
<g id="edge31" class="edge">
<title>2&#45;&gt;18</title>
<path fill="none" stroke="grey" stroke-width="2" d="M1000.04,-146.47C1003.24,-145.62 1006.4,-144.8 1009.5,-144 1054.87,-132.33 1105.69,-120.09 1147.15,-110.31"/>
<polygon fill="grey" stroke="grey" stroke-width="2" points="1148,-113.71 1156.94,-108.01 1146.4,-106.89 1148,-113.71"/>
</g>
<!-- 21 -->
<g id="node22" class="node">
<title>21</title>
<path fill="none" stroke="#78d856" stroke-width="2" d="M1502,-108C1502,-108 1349,-108 1349,-108 1343,-108 1337,-102 1337,-96 1337,-96 1337,-84 1337,-84 1337,-78 1343,-72 1349,-72 1349,-72 1502,-72 1502,-72 1508,-72 1514,-78 1514,-84 1514,-84 1514,-96 1514,-96 1514,-102 1508,-108 1502,-108"/>
<text text-anchor="middle" x="1425.5" y="-87.5" font-family="sans" font-size="10.00">transform_dependent_images_to_fda</text>
</g>
<!-- 2&#45;&gt;21 -->
<g id="edge35" class="edge">
<title>2&#45;&gt;21</title>
<path fill="none" stroke="grey" stroke-width="2" d="M998,-146.44C1001.88,-145.55 1005.73,-144.73 1009.5,-144 1146.03,-117.69 1184.96,-127.69 1326.91,-108.02"/>
<polygon fill="grey" stroke="grey" stroke-width="2" points="1327.45,-111.48 1336.86,-106.62 1326.47,-104.55 1327.45,-111.48"/>
</g>
<!-- 24 -->
<g id="node25" class="node">
<title>24</title>
<path fill="none" stroke="#78d856" stroke-width="2" d="M1697,-108C1697,-108 1544,-108 1544,-108 1538,-108 1532,-102 1532,-96 1532,-96 1532,-84 1532,-84 1532,-78 1538,-72 1544,-72 1544,-72 1697,-72 1697,-72 1703,-72 1709,-78 1709,-84 1709,-84 1709,-96 1709,-96 1709,-102 1703,-108 1697,-108"/>
<text text-anchor="middle" x="1620.5" y="-87.5" font-family="sans" font-size="10.00">transform_dependent_images_to_fda</text>
</g>
<!-- 2&#45;&gt;24 -->
<g id="edge39" class="edge">
<title>2&#45;&gt;24</title>
<path fill="none" stroke="grey" stroke-width="2" d="M997.19,-146.42C1001.33,-145.51 1005.47,-144.69 1009.5,-144 1231.61,-106.09 1293.85,-134.73 1521.95,-107.98"/>
<polygon fill="grey" stroke="grey" stroke-width="2" points="1522.37,-111.45 1531.89,-106.79 1521.54,-104.5 1522.37,-111.45"/>
</g>
<!-- 27 -->
<g id="node28" class="node">
<title>27</title>
<path fill="none" stroke="#78d856" stroke-width="2" d="M1892,-108C1892,-108 1739,-108 1739,-108 1733,-108 1727,-102 1727,-96 1727,-96 1727,-84 1727,-84 1727,-78 1733,-72 1739,-72 1739,-72 1892,-72 1892,-72 1898,-72 1904,-78 1904,-84 1904,-84 1904,-96 1904,-96 1904,-102 1898,-108 1892,-108"/>
<text text-anchor="middle" x="1815.5" y="-87.5" font-family="sans" font-size="10.00">transform_dependent_images_to_fda</text>
</g>
<!-- 2&#45;&gt;27 -->
<g id="edge43" class="edge">
<title>2&#45;&gt;27</title>
<path fill="none" stroke="grey" stroke-width="2" d="M996.39,-146.5C1000.81,-145.54 1005.21,-144.69 1009.5,-144 1317.24,-94.52 1402.55,-141.95 1716.58,-108"/>
<polygon fill="grey" stroke="grey" stroke-width="2" points="1717.34,-111.44 1726.9,-106.86 1716.57,-104.48 1717.34,-111.44"/>
</g>
<!-- 3 -->
<g id="node4" class="node">
<title>3</title>
<path fill="none" stroke="#56a2d8" stroke-width="2" stroke-dasharray="5,2" d="M1034.5,-329C1034.5,-329 978.5,-329 978.5,-329 972.5,-329 966.5,-323 966.5,-317 966.5,-317 966.5,-305 966.5,-305 966.5,-299 972.5,-293 978.5,-293 978.5,-293 1034.5,-293 1034.5,-293 1040.5,-293 1046.5,-299 1046.5,-305 1046.5,-305 1046.5,-317 1046.5,-317 1046.5,-323 1040.5,-329 1034.5,-329"/>
<text text-anchor="middle" x="1006.5" y="-308.5" font-family="sans" font-size="10.00">build_template</text>
</g>
<!-- 3&#45;&gt;2 -->
<g id="edge12" class="edge">
<title>3&#45;&gt;2</title>
<path fill="none" stroke="grey" stroke-width="2" d="M998.43,-292.86C986.67,-267.87 964.73,-221.24 950.91,-191.86"/>
<polygon fill="grey" stroke="grey" stroke-width="2" points="953.98,-190.18 946.56,-182.62 947.65,-193.16 953.98,-190.18"/>
</g>
<!-- 5 -->
<g id="node6" class="node">
<title>5</title>
<path fill="none" stroke="#d85656" stroke-width="2" d="M195.5,-257C195.5,-257 31.5,-257 31.5,-257 25.5,-257 19.5,-251 19.5,-245 19.5,-245 19.5,-233 19.5,-233 19.5,-227 25.5,-221 31.5,-221 31.5,-221 195.5,-221 195.5,-221 201.5,-221 207.5,-227 207.5,-233 207.5,-233 207.5,-245 207.5,-245 207.5,-251 201.5,-257 195.5,-257"/>
<text text-anchor="middle" x="113.5" y="-242" font-family="sans" font-size="10.00">register_structural_images_to_template</text>
<text text-anchor="middle" x="113.5" y="-231" font-family="sans" font-size="10.00">sample: fly_9</text>
</g>
<!-- 3&#45;&gt;5 -->
<g id="edge14" class="edge">
<title>3&#45;&gt;5</title>
<path fill="none" stroke="grey" stroke-width="2" d="M966.41,-308.53C850.74,-304.01 506.54,-288.69 222.5,-257 220.98,-256.83 219.46,-256.66 217.92,-256.48"/>
<polygon fill="grey" stroke="grey" stroke-width="2" points="218.02,-252.96 207.67,-255.21 217.16,-259.91 218.02,-252.96"/>
</g>
<!-- 8 -->
<g id="node9" class="node">
<title>8</title>
<path fill="none" stroke="#d85656" stroke-width="2" d="M407.5,-257C407.5,-257 243.5,-257 243.5,-257 237.5,-257 231.5,-251 231.5,-245 231.5,-245 231.5,-233 231.5,-233 231.5,-227 237.5,-221 243.5,-221 243.5,-221 407.5,-221 407.5,-221 413.5,-221 419.5,-227 419.5,-233 419.5,-233 419.5,-245 419.5,-245 419.5,-251 413.5,-257 407.5,-257"/>
<text text-anchor="middle" x="325.5" y="-242" font-family="sans" font-size="10.00">register_structural_images_to_template</text>
<text text-anchor="middle" x="325.5" y="-231" font-family="sans" font-size="10.00">sample: fly_2</text>
</g>
<!-- 3&#45;&gt;8 -->
<g id="edge18" class="edge">
<title>3&#45;&gt;8</title>
<path fill="none" stroke="grey" stroke-width="2" d="M966.35,-306.96C873.7,-299.77 637.87,-280.58 441.5,-257 437.63,-256.54 433.69,-256.05 429.72,-255.54"/>
<polygon fill="grey" stroke="grey" stroke-width="2" points="430.14,-252.06 419.77,-254.23 429.24,-259 430.14,-252.06"/>
</g>
<!-- 11 -->
<g id="node12" class="node">
<title>11</title>
<path fill="none" stroke="#d85656" stroke-width="2" d="M626.5,-257C626.5,-257 462.5,-257 462.5,-257 456.5,-257 450.5,-251 450.5,-245 450.5,-245 450.5,-233 450.5,-233 450.5,-227 456.5,-221 462.5,-221 462.5,-221 626.5,-221 626.5,-221 632.5,-221 638.5,-227 638.5,-233 638.5,-233 638.5,-245 638.5,-245 638.5,-251 632.5,-257 626.5,-257"/>
<text text-anchor="middle" x="544.5" y="-242" font-family="sans" font-size="10.00">register_structural_images_to_template</text>
<text text-anchor="middle" x="544.5" y="-231" font-family="sans" font-size="10.00">sample: fly_6</text>
</g>
<!-- 3&#45;&gt;11 -->
<g id="edge22" class="edge">
<title>3&#45;&gt;11</title>
<path fill="none" stroke="grey" stroke-width="2" d="M966.31,-303.91C896.16,-293.28 749.29,-271.03 648.77,-255.8"/>
<polygon fill="grey" stroke="grey" stroke-width="2" points="649,-252.29 638.59,-254.26 647.95,-259.21 649,-252.29"/>
</g>
<!-- 14 -->
<g id="node15" class="node">
<title>14</title>
<path fill="none" stroke="#d85656" stroke-width="2" d="M872.5,-257C872.5,-257 708.5,-257 708.5,-257 702.5,-257 696.5,-251 696.5,-245 696.5,-245 696.5,-233 696.5,-233 696.5,-227 702.5,-221 708.5,-221 708.5,-221 872.5,-221 872.5,-221 878.5,-221 884.5,-227 884.5,-233 884.5,-233 884.5,-245 884.5,-245 884.5,-251 878.5,-257 872.5,-257"/>
<text text-anchor="middle" x="790.5" y="-242" font-family="sans" font-size="10.00">register_structural_images_to_template</text>
<text text-anchor="middle" x="790.5" y="-231" font-family="sans" font-size="10.00">sample: fly_5</text>
</g>
<!-- 3&#45;&gt;14 -->
<g id="edge26" class="edge">
<title>3&#45;&gt;14</title>
<path fill="none" stroke="grey" stroke-width="2" d="M966.38,-297C934.46,-286.65 889.24,-272 852.64,-260.14"/>
<polygon fill="grey" stroke="grey" stroke-width="2" points="853.65,-256.79 843.06,-257.03 851.49,-263.44 853.65,-256.79"/>
</g>
<!-- 17 -->
<g id="node18" class="node">
<title>17</title>
<path fill="none" stroke="#d85656" stroke-width="2" d="M1178.5,-257C1178.5,-257 1014.5,-257 1014.5,-257 1008.5,-257 1002.5,-251 1002.5,-245 1002.5,-245 1002.5,-233 1002.5,-233 1002.5,-227 1008.5,-221 1014.5,-221 1014.5,-221 1178.5,-221 1178.5,-221 1184.5,-221 1190.5,-227 1190.5,-233 1190.5,-233 1190.5,-245 1190.5,-245 1190.5,-251 1184.5,-257 1178.5,-257"/>
<text text-anchor="middle" x="1096.5" y="-242" font-family="sans" font-size="10.00">register_structural_images_to_template</text>
<text text-anchor="middle" x="1096.5" y="-231" font-family="sans" font-size="10.00">sample: fly_4</text>
</g>
<!-- 3&#45;&gt;17 -->
<g id="edge30" class="edge">
<title>3&#45;&gt;17</title>
<path fill="none" stroke="grey" stroke-width="2" d="M1028.75,-292.7C1040.08,-283.88 1054.03,-273.03 1066.32,-263.47"/>
<polygon fill="grey" stroke="grey" stroke-width="2" points="1068.76,-266.01 1074.51,-257.1 1064.47,-260.48 1068.76,-266.01"/>
</g>
<!-- 20 -->
<g id="node21" class="node">
<title>20</title>
<path fill="none" stroke="#d85656" stroke-width="2" d="M1405.5,-257C1405.5,-257 1241.5,-257 1241.5,-257 1235.5,-257 1229.5,-251 1229.5,-245 1229.5,-245 1229.5,-233 1229.5,-233 1229.5,-227 1235.5,-221 1241.5,-221 1241.5,-221 1405.5,-221 1405.5,-221 1411.5,-221 1417.5,-227 1417.5,-233 1417.5,-233 1417.5,-245 1417.5,-245 1417.5,-251 1411.5,-257 1405.5,-257"/>
<text text-anchor="middle" x="1323.5" y="-242" font-family="sans" font-size="10.00">register_structural_images_to_template</text>
<text text-anchor="middle" x="1323.5" y="-231" font-family="sans" font-size="10.00">sample: fly_1</text>
</g>
<!-- 3&#45;&gt;20 -->
<g id="edge34" class="edge">
<title>3&#45;&gt;20</title>
<path fill="none" stroke="grey" stroke-width="2" d="M1046.65,-301.13C1094.17,-290.64 1174.67,-272.86 1236.65,-259.18"/>
<polygon fill="grey" stroke="grey" stroke-width="2" points="1237.42,-262.59 1246.43,-257.02 1235.91,-255.76 1237.42,-262.59"/>
</g>
<!-- 23 -->
<g id="node24" class="node">
<title>23</title>
<path fill="none" stroke="#d85656" stroke-width="2" d="M1628.5,-257C1628.5,-257 1464.5,-257 1464.5,-257 1458.5,-257 1452.5,-251 1452.5,-245 1452.5,-245 1452.5,-233 1452.5,-233 1452.5,-227 1458.5,-221 1464.5,-221 1464.5,-221 1628.5,-221 1628.5,-221 1634.5,-221 1640.5,-227 1640.5,-233 1640.5,-233 1640.5,-245 1640.5,-245 1640.5,-251 1634.5,-257 1628.5,-257"/>
<text text-anchor="middle" x="1546.5" y="-242" font-family="sans" font-size="10.00">register_structural_images_to_template</text>
<text text-anchor="middle" x="1546.5" y="-231" font-family="sans" font-size="10.00">sample: fly_7</text>
</g>
<!-- 3&#45;&gt;23 -->
<g id="edge38" class="edge">
<title>3&#45;&gt;23</title>
<path fill="none" stroke="grey" stroke-width="2" d="M1046.78,-305.12C1121.62,-296.02 1287.18,-275.66 1426.5,-257 1431.58,-256.32 1436.79,-255.61 1442.04,-254.9"/>
<polygon fill="grey" stroke="grey" stroke-width="2" points="1442.76,-258.33 1452.19,-253.5 1441.81,-251.39 1442.76,-258.33"/>
</g>
<!-- 26 -->
<g id="node27" class="node">
<title>26</title>
<path fill="none" stroke="#d85656" stroke-width="2" d="M1849.5,-257C1849.5,-257 1685.5,-257 1685.5,-257 1679.5,-257 1673.5,-251 1673.5,-245 1673.5,-245 1673.5,-233 1673.5,-233 1673.5,-227 1679.5,-221 1685.5,-221 1685.5,-221 1849.5,-221 1849.5,-221 1855.5,-221 1861.5,-227 1861.5,-233 1861.5,-233 1861.5,-245 1861.5,-245 1861.5,-251 1855.5,-257 1849.5,-257"/>
<text text-anchor="middle" x="1767.5" y="-242" font-family="sans" font-size="10.00">register_structural_images_to_template</text>
<text text-anchor="middle" x="1767.5" y="-231" font-family="sans" font-size="10.00">sample: fly_3</text>
</g>
<!-- 3&#45;&gt;26 -->
<g id="edge42" class="edge">
<title>3&#45;&gt;26</title>
<path fill="none" stroke="grey" stroke-width="2" d="M1046.83,-307.53C1148.28,-301.14 1422.17,-282.72 1649.5,-257 1653.96,-256.5 1658.51,-255.95 1663.1,-255.39"/>
<polygon fill="grey" stroke="grey" stroke-width="2" points="1663.73,-258.84 1673.21,-254.11 1662.85,-251.89 1663.73,-258.84"/>
</g>
<!-- 29 -->
<g id="node30" class="node">
<title>29</title>
<path fill="none" stroke="#d85656" stroke-width="2" d="M2069.5,-257C2069.5,-257 1905.5,-257 1905.5,-257 1899.5,-257 1893.5,-251 1893.5,-245 1893.5,-245 1893.5,-233 1893.5,-233 1893.5,-227 1899.5,-221 1905.5,-221 1905.5,-221 2069.5,-221 2069.5,-221 2075.5,-221 2081.5,-227 2081.5,-233 2081.5,-233 2081.5,-245 2081.5,-245 2081.5,-251 2075.5,-257 2069.5,-257"/>
<text text-anchor="middle" x="1987.5" y="-242" font-family="sans" font-size="10.00">register_structural_images_to_template</text>
<text text-anchor="middle" x="1987.5" y="-231" font-family="sans" font-size="10.00">sample: fly_8</text>
</g>
<!-- 3&#45;&gt;29 -->
<g id="edge46" class="edge">
<title>3&#45;&gt;29</title>
<path fill="none" stroke="grey" stroke-width="2" d="M1046.65,-308.72C1169.94,-304.55 1553.96,-289.65 1870.5,-257 1874.69,-256.57 1878.96,-256.1 1883.28,-255.59"/>
<polygon fill="grey" stroke="grey" stroke-width="2" points="1883.89,-259.04 1893.39,-254.37 1883.05,-252.09 1883.89,-259.04"/>
</g>
<!-- 4 -->
<g id="node5" class="node">
<title>4</title>
<path fill="none" stroke="#56d8c9" stroke-width="2" d="M189,-185C189,-185 12,-185 12,-185 6,-185 0,-179 0,-173 0,-173 0,-156 0,-156 0,-150 6,-144 12,-144 12,-144 189,-144 189,-144 195,-144 201,-150 201,-156 201,-156 201,-173 201,-173 201,-179 195,-185 189,-185"/>
<text text-anchor="middle" x="100.5" y="-173" font-family="sans" font-size="10.00">transform_dependent_images_to_template</text>
<text text-anchor="middle" x="100.5" y="-162" font-family="sans" font-size="10.00">channel: green</text>
<text text-anchor="middle" x="100.5" y="-151" font-family="sans" font-size="10.00">image: lc11</text>
</g>
<!-- 4&#45;&gt;1 -->
<g id="edge11" class="edge">
<title>4&#45;&gt;1</title>
<path fill="none" stroke="grey" stroke-width="2" d="M142.45,-143.88C163.3,-134.13 188.53,-122.32 209.87,-112.34"/>
<polygon fill="grey" stroke="grey" stroke-width="2" points="211.48,-115.45 219.06,-108.05 208.52,-109.11 211.48,-115.45"/>
</g>
<!-- 5&#45;&gt;4 -->
<g id="edge13" class="edge">
<title>5&#45;&gt;4</title>
<path fill="none" stroke="grey" stroke-width="2" d="M110.42,-220.82C109.04,-213.11 107.37,-203.8 105.8,-195.03"/>
<polygon fill="grey" stroke="grey" stroke-width="2" points="109.23,-194.34 104.02,-185.12 102.34,-195.58 109.23,-194.34"/>
</g>
<!-- 6&#45;&gt;0 -->
<g id="edge2" class="edge">
<title>6&#45;&gt;0</title>
<path fill="none" stroke="grey" stroke-width="2" d="M539.01,-73.24C541.87,-72.81 544.71,-72.4 547.5,-72 715.06,-48.24 916.31,-29.45 998.15,-22.22"/>
<polygon fill="grey" stroke="grey" stroke-width="2" points="998.79,-25.68 1008.44,-21.31 998.17,-18.7 998.79,-25.68"/>
</g>
<!-- 7 -->
<g id="node8" class="node">
<title>7</title>
<path fill="none" stroke="#56d8c9" stroke-width="2" d="M408,-185C408,-185 231,-185 231,-185 225,-185 219,-179 219,-173 219,-173 219,-156 219,-156 219,-150 225,-144 231,-144 231,-144 408,-144 408,-144 414,-144 420,-150 420,-156 420,-156 420,-173 420,-173 420,-179 414,-185 408,-185"/>
<text text-anchor="middle" x="319.5" y="-173" font-family="sans" font-size="10.00">transform_dependent_images_to_template</text>
<text text-anchor="middle" x="319.5" y="-162" font-family="sans" font-size="10.00">channel: green</text>
<text text-anchor="middle" x="319.5" y="-151" font-family="sans" font-size="10.00">image: lc11</text>
</g>
<!-- 7&#45;&gt;6 -->
<g id="edge16" class="edge">
<title>7&#45;&gt;6</title>
<path fill="none" stroke="grey" stroke-width="2" d="M354.95,-143.88C372.11,-134.38 392.79,-122.94 410.52,-113.13"/>
<polygon fill="grey" stroke="grey" stroke-width="2" points="412.43,-116.07 419.48,-108.17 409.04,-109.95 412.43,-116.07"/>
</g>
<!-- 8&#45;&gt;7 -->
<g id="edge17" class="edge">
<title>8&#45;&gt;7</title>
<path fill="none" stroke="grey" stroke-width="2" d="M324.08,-220.82C323.45,-213.2 322.69,-204 321.97,-195.32"/>
<polygon fill="grey" stroke="grey" stroke-width="2" points="325.44,-194.8 321.12,-185.12 318.46,-195.37 325.44,-194.8"/>
</g>
<!-- 9&#45;&gt;0 -->
<g id="edge3" class="edge">
<title>9&#45;&gt;0</title>
<path fill="none" stroke="grey" stroke-width="2" d="M734.49,-73.03C817.62,-58.11 937.69,-36.56 997.98,-25.73"/>
<polygon fill="grey" stroke="grey" stroke-width="2" points="998.94,-29.12 1008.17,-23.91 997.71,-22.23 998.94,-29.12"/>
</g>
<!-- 10 -->
<g id="node11" class="node">
<title>10</title>
<path fill="none" stroke="#56d8c9" stroke-width="2" d="M627,-185C627,-185 450,-185 450,-185 444,-185 438,-179 438,-173 438,-173 438,-156 438,-156 438,-150 444,-144 450,-144 450,-144 627,-144 627,-144 633,-144 639,-150 639,-156 639,-156 639,-173 639,-173 639,-179 633,-185 627,-185"/>
<text text-anchor="middle" x="538.5" y="-173" font-family="sans" font-size="10.00">transform_dependent_images_to_template</text>
<text text-anchor="middle" x="538.5" y="-162" font-family="sans" font-size="10.00">channel: green</text>
<text text-anchor="middle" x="538.5" y="-151" font-family="sans" font-size="10.00">image: lc11</text>
</g>
<!-- 10&#45;&gt;9 -->
<g id="edge20" class="edge">
<title>10&#45;&gt;9</title>
<path fill="none" stroke="grey" stroke-width="2" d="M567.46,-143.88C581.09,-134.64 597.44,-123.57 611.64,-113.94"/>
<polygon fill="grey" stroke="grey" stroke-width="2" points="613.85,-116.67 620.16,-108.17 609.92,-110.88 613.85,-116.67"/>
</g>
<!-- 11&#45;&gt;10 -->
<g id="edge21" class="edge">
<title>11&#45;&gt;10</title>
<path fill="none" stroke="grey" stroke-width="2" d="M543.08,-220.82C542.45,-213.2 541.69,-204 540.97,-195.32"/>
<polygon fill="grey" stroke="grey" stroke-width="2" points="544.44,-194.8 540.12,-185.12 537.46,-195.37 544.44,-194.8"/>
</g>
<!-- 12&#45;&gt;0 -->
<g id="edge4" class="edge">
<title>12&#45;&gt;0</title>
<path fill="none" stroke="grey" stroke-width="2" d="M888.2,-71.88C922.29,-59.64 967.47,-43.42 998.76,-32.19"/>
<polygon fill="grey" stroke="grey" stroke-width="2" points="1000.17,-35.4 1008.4,-28.73 997.81,-28.81 1000.17,-35.4"/>
</g>
<!-- 13 -->
<g id="node14" class="node">
<title>13</title>
<path fill="none" stroke="#56d8c9" stroke-width="2" d="M846,-185C846,-185 669,-185 669,-185 663,-185 657,-179 657,-173 657,-173 657,-156 657,-156 657,-150 663,-144 669,-144 669,-144 846,-144 846,-144 852,-144 858,-150 858,-156 858,-156 858,-173 858,-173 858,-179 852,-185 846,-185"/>
<text text-anchor="middle" x="757.5" y="-173" font-family="sans" font-size="10.00">transform_dependent_images_to_template</text>
<text text-anchor="middle" x="757.5" y="-162" font-family="sans" font-size="10.00">channel: green</text>
<text text-anchor="middle" x="757.5" y="-151" font-family="sans" font-size="10.00">image: lc11</text>
</g>
<!-- 13&#45;&gt;12 -->
<g id="edge24" class="edge">
<title>13&#45;&gt;12</title>
<path fill="none" stroke="grey" stroke-width="2" d="M780.18,-143.69C790.35,-134.8 802.44,-124.24 813.12,-114.92"/>
<polygon fill="grey" stroke="grey" stroke-width="2" points="815.72,-117.29 820.95,-108.08 811.11,-112.02 815.72,-117.29"/>
</g>
<!-- 14&#45;&gt;13 -->
<g id="edge25" class="edge">
<title>14&#45;&gt;13</title>
<path fill="none" stroke="grey" stroke-width="2" d="M782.68,-220.82C779.1,-212.95 774.75,-203.4 770.68,-194.46"/>
<polygon fill="grey" stroke="grey" stroke-width="2" points="773.76,-192.77 766.43,-185.12 767.39,-195.67 773.76,-192.77"/>
</g>
<!-- 15&#45;&gt;0 -->
<g id="edge5" class="edge">
<title>15&#45;&gt;0</title>
<path fill="none" stroke="grey" stroke-width="2" d="M1035.5,-71.7C1035.5,-63.98 1035.5,-54.71 1035.5,-46.11"/>
<polygon fill="grey" stroke="grey" stroke-width="2" points="1039,-46.1 1035.5,-36.1 1032,-46.1 1039,-46.1"/>
</g>
<!-- 16 -->
<g id="node17" class="node">
<title>16</title>
<path fill="none" stroke="#56d8c9" stroke-width="2" d="M1208,-185C1208,-185 1031,-185 1031,-185 1025,-185 1019,-179 1019,-173 1019,-173 1019,-156 1019,-156 1019,-150 1025,-144 1031,-144 1031,-144 1208,-144 1208,-144 1214,-144 1220,-150 1220,-156 1220,-156 1220,-173 1220,-173 1220,-179 1214,-185 1208,-185"/>
<text text-anchor="middle" x="1119.5" y="-173" font-family="sans" font-size="10.00">transform_dependent_images_to_template</text>
<text text-anchor="middle" x="1119.5" y="-162" font-family="sans" font-size="10.00">channel: green</text>
<text text-anchor="middle" x="1119.5" y="-151" font-family="sans" font-size="10.00">image: lc11</text>
</g>
<!-- 16&#45;&gt;15 -->
<g id="edge28" class="edge">
<title>16&#45;&gt;15</title>
<path fill="none" stroke="grey" stroke-width="2" d="M1096.55,-143.69C1086.15,-134.72 1073.78,-124.04 1062.9,-114.65"/>
<polygon fill="grey" stroke="grey" stroke-width="2" points="1065.14,-111.96 1055.29,-108.08 1060.57,-117.26 1065.14,-111.96"/>
</g>
<!-- 17&#45;&gt;16 -->
<g id="edge29" class="edge">
<title>17&#45;&gt;16</title>
<path fill="none" stroke="grey" stroke-width="2" d="M1101.95,-220.82C1104.42,-213.03 1107.41,-203.6 1110.22,-194.75"/>
<polygon fill="grey" stroke="grey" stroke-width="2" points="1113.59,-195.71 1113.28,-185.12 1106.92,-193.59 1113.59,-195.71"/>
</g>
<!-- 18&#45;&gt;0 -->
<g id="edge6" class="edge">
<title>18&#45;&gt;0</title>
<path fill="none" stroke="grey" stroke-width="2" d="M1182.8,-71.88C1148.71,-59.64 1103.53,-43.42 1072.24,-32.19"/>
<polygon fill="grey" stroke="grey" stroke-width="2" points="1073.19,-28.81 1062.6,-28.73 1070.83,-35.4 1073.19,-28.81"/>
</g>
<!-- 19 -->
<g id="node20" class="node">
<title>19</title>
<path fill="none" stroke="#56d8c9" stroke-width="2" d="M1427,-185C1427,-185 1250,-185 1250,-185 1244,-185 1238,-179 1238,-173 1238,-173 1238,-156 1238,-156 1238,-150 1244,-144 1250,-144 1250,-144 1427,-144 1427,-144 1433,-144 1439,-150 1439,-156 1439,-156 1439,-173 1439,-173 1439,-179 1433,-185 1427,-185"/>
<text text-anchor="middle" x="1338.5" y="-173" font-family="sans" font-size="10.00">transform_dependent_images_to_template</text>
<text text-anchor="middle" x="1338.5" y="-162" font-family="sans" font-size="10.00">channel: green</text>
<text text-anchor="middle" x="1338.5" y="-151" font-family="sans" font-size="10.00">image: lc11</text>
</g>
<!-- 19&#45;&gt;18 -->
<g id="edge32" class="edge">
<title>19&#45;&gt;18</title>
<path fill="none" stroke="grey" stroke-width="2" d="M1309.27,-143.88C1295.51,-134.64 1279.01,-123.57 1264.67,-113.94"/>
<polygon fill="grey" stroke="grey" stroke-width="2" points="1266.33,-110.83 1256.07,-108.17 1262.42,-116.65 1266.33,-110.83"/>
</g>
<!-- 20&#45;&gt;19 -->
<g id="edge33" class="edge">
<title>20&#45;&gt;19</title>
<path fill="none" stroke="grey" stroke-width="2" d="M1327.05,-220.82C1328.65,-213.11 1330.58,-203.8 1332.39,-195.03"/>
<polygon fill="grey" stroke="grey" stroke-width="2" points="1335.84,-195.62 1334.44,-185.12 1328.99,-194.2 1335.84,-195.62"/>
</g>
<!-- 21&#45;&gt;0 -->
<g id="edge7" class="edge">
<title>21&#45;&gt;0</title>
<path fill="none" stroke="grey" stroke-width="2" d="M1336.51,-73.03C1253.38,-58.11 1133.31,-36.56 1073.02,-25.73"/>
<polygon fill="grey" stroke="grey" stroke-width="2" points="1073.29,-22.23 1062.83,-23.91 1072.06,-29.12 1073.29,-22.23"/>
</g>
<!-- 22 -->
<g id="node23" class="node">
<title>22</title>
<path fill="none" stroke="#56d8c9" stroke-width="2" d="M1646,-185C1646,-185 1469,-185 1469,-185 1463,-185 1457,-179 1457,-173 1457,-173 1457,-156 1457,-156 1457,-150 1463,-144 1469,-144 1469,-144 1646,-144 1646,-144 1652,-144 1658,-150 1658,-156 1658,-156 1658,-173 1658,-173 1658,-179 1652,-185 1646,-185"/>
<text text-anchor="middle" x="1557.5" y="-173" font-family="sans" font-size="10.00">transform_dependent_images_to_template</text>
<text text-anchor="middle" x="1557.5" y="-162" font-family="sans" font-size="10.00">channel: green</text>
<text text-anchor="middle" x="1557.5" y="-151" font-family="sans" font-size="10.00">image: lc11</text>
</g>
<!-- 22&#45;&gt;21 -->
<g id="edge36" class="edge">
<title>22&#45;&gt;21</title>
<path fill="none" stroke="grey" stroke-width="2" d="M1521.78,-143.88C1504.48,-134.38 1483.65,-122.94 1465.79,-113.13"/>
<polygon fill="grey" stroke="grey" stroke-width="2" points="1467.2,-109.91 1456.75,-108.17 1463.83,-116.05 1467.2,-109.91"/>
</g>
<!-- 23&#45;&gt;22 -->
<g id="edge37" class="edge">
<title>23&#45;&gt;22</title>
<path fill="none" stroke="grey" stroke-width="2" d="M1549.11,-220.82C1550.28,-213.11 1551.69,-203.8 1553.02,-195.03"/>
<polygon fill="grey" stroke="grey" stroke-width="2" points="1556.48,-195.53 1554.52,-185.12 1549.56,-194.48 1556.48,-195.53"/>
</g>
<!-- 24&#45;&gt;0 -->
<g id="edge8" class="edge">
<title>24&#45;&gt;0</title>
<path fill="none" stroke="grey" stroke-width="2" d="M1531.87,-73.37C1528.71,-72.89 1525.58,-72.43 1522.5,-72 1355.46,-48.45 1154.92,-29.58 1073.06,-22.27"/>
<polygon fill="grey" stroke="grey" stroke-width="2" points="1073.04,-18.75 1062.77,-21.36 1072.42,-25.73 1073.04,-18.75"/>
</g>
<!-- 25 -->
<g id="node26" class="node">
<title>25</title>
<path fill="none" stroke="#56d8c9" stroke-width="2" d="M1865,-185C1865,-185 1688,-185 1688,-185 1682,-185 1676,-179 1676,-173 1676,-173 1676,-156 1676,-156 1676,-150 1682,-144 1688,-144 1688,-144 1865,-144 1865,-144 1871,-144 1877,-150 1877,-156 1877,-156 1877,-173 1877,-173 1877,-179 1871,-185 1865,-185"/>
<text text-anchor="middle" x="1776.5" y="-173" font-family="sans" font-size="10.00">transform_dependent_images_to_template</text>
<text text-anchor="middle" x="1776.5" y="-162" font-family="sans" font-size="10.00">channel: green</text>
<text text-anchor="middle" x="1776.5" y="-151" font-family="sans" font-size="10.00">image: lc11</text>
</g>
<!-- 25&#45;&gt;24 -->
<g id="edge40" class="edge">
<title>25&#45;&gt;24</title>
<path fill="none" stroke="grey" stroke-width="2" d="M1734.28,-143.88C1713.3,-134.13 1687.9,-122.32 1666.43,-112.34"/>
<polygon fill="grey" stroke="grey" stroke-width="2" points="1667.72,-109.09 1657.18,-108.05 1664.77,-115.43 1667.72,-109.09"/>
</g>
<!-- 26&#45;&gt;25 -->
<g id="edge41" class="edge">
<title>26&#45;&gt;25</title>
<path fill="none" stroke="grey" stroke-width="2" d="M1769.63,-220.82C1770.58,-213.2 1771.72,-204 1772.8,-195.32"/>
<polygon fill="grey" stroke="grey" stroke-width="2" points="1776.31,-195.47 1774.06,-185.12 1769.36,-194.61 1776.31,-195.47"/>
</g>
<!-- 27&#45;&gt;0 -->
<g id="edge9" class="edge">
<title>27&#45;&gt;0</title>
<path fill="none" stroke="grey" stroke-width="2" d="M1726.88,-73.24C1723.72,-72.8 1720.58,-72.39 1717.5,-72 1472.52,-41.3 1175.67,-25.51 1072.75,-20.66"/>
<polygon fill="grey" stroke="grey" stroke-width="2" points="1072.71,-17.15 1062.56,-20.19 1072.39,-24.15 1072.71,-17.15"/>
</g>
<!-- 28 -->
<g id="node29" class="node">
<title>28</title>
<path fill="none" stroke="#56d8c9" stroke-width="2" d="M2084,-185C2084,-185 1907,-185 1907,-185 1901,-185 1895,-179 1895,-173 1895,-173 1895,-156 1895,-156 1895,-150 1901,-144 1907,-144 1907,-144 2084,-144 2084,-144 2090,-144 2096,-150 2096,-156 2096,-156 2096,-173 2096,-173 2096,-179 2090,-185 2084,-185"/>
<text text-anchor="middle" x="1995.5" y="-173" font-family="sans" font-size="10.00">transform_dependent_images_to_template</text>
<text text-anchor="middle" x="1995.5" y="-162" font-family="sans" font-size="10.00">channel: green</text>
<text text-anchor="middle" x="1995.5" y="-151" font-family="sans" font-size="10.00">image: lc11</text>
</g>
<!-- 28&#45;&gt;27 -->
<g id="edge44" class="edge">
<title>28&#45;&gt;27</title>
<path fill="none" stroke="grey" stroke-width="2" d="M1946.79,-143.88C1922.14,-133.95 1892.21,-121.9 1867.16,-111.81"/>
<polygon fill="grey" stroke="grey" stroke-width="2" points="1868.4,-108.54 1857.82,-108.05 1865.79,-115.03 1868.4,-108.54"/>
</g>
<!-- 29&#45;&gt;28 -->
<g id="edge45" class="edge">
<title>29&#45;&gt;28</title>
<path fill="none" stroke="grey" stroke-width="2" d="M1989.4,-220.82C1990.24,-213.2 1991.25,-204 1992.21,-195.32"/>
<polygon fill="grey" stroke="grey" stroke-width="2" points="1995.72,-195.44 1993.34,-185.12 1988.76,-194.68 1995.72,-195.44"/>
</g>
</g>
</svg>
