<?xml version="1.0" encoding="UTF-8" standalone="no"?>
<!DOCTYPE svg PUBLIC "-//W3C//DTD SVG 1.1//EN"
 "http://www.w3.org/Graphics/SVG/1.1/DTD/svg11.dtd">
<!-- Generated by graphviz version 2.44.1 (20200629.0846)
 -->
<!-- Title: snakemake_dag Pages: 1 -->
<svg width="571pt" height="337pt"
 viewBox="0.00 0.00 571.00 337.00" xmlns="http://www.w3.org/2000/svg" xmlns:xlink="http://www.w3.org/1999/xlink">
<g id="graph0" class="graph" transform="scale(1 1) rotate(0) translate(4 333)">
<title>snakemake_dag</title>
<polygon fill="white" stroke="transparent" points="-4,4 -4,-333 567,-333 567,4 -4,4"/>
<!-- 0 -->
<g id="node1" class="node">
<title>0</title>
<path fill="none" stroke="#d85656" stroke-width="2" d="M295.5,-36C295.5,-36 265.5,-36 265.5,-36 259.5,-36 253.5,-30 253.5,-24 253.5,-24 253.5,-12 253.5,-12 253.5,-6 259.5,0 265.5,0 265.5,0 295.5,0 295.5,0 301.5,0 307.5,-6 307.5,-12 307.5,-12 307.5,-24 307.5,-24 307.5,-30 301.5,-36 295.5,-36"/>
<text text-anchor="middle" x="280.5" y="-15.5" font-family="sans" font-size="10.00">all</text>
</g>
<!-- 1 -->
<g id="node2" class="node">
<title>1</title>
<path fill="none" stroke="#d8a456" stroke-width="2" d="M260,-108C260,-108 107,-108 107,-108 101,-108 95,-102 95,-96 95,-96 95,-84 95,-84 95,-78 101,-72 107,-72 107,-72 260,-72 260,-72 266,-72 272,-78 272,-84 272,-84 272,-96 272,-96 272,-102 266,-108 260,-108"/>
<text text-anchor="middle" x="183.5" y="-87.5" font-family="sans" font-size="10.00">transform_dependent_images_to_fda</text>
</g>
<!-- 1&#45;&gt;0 -->
<g id="edge1" class="edge">
<title>1&#45;&gt;0</title>
<path fill="none" stroke="grey" stroke-width="2" d="M207.48,-71.7C219.81,-62.8 235.02,-51.82 248.35,-42.2"/>
<polygon fill="grey" stroke="grey" stroke-width="2" points="250.74,-44.79 256.8,-36.1 246.64,-39.12 250.74,-44.79"/>
</g>
<!-- 2 -->
<g id="node3" class="node">
<title>2</title>
<path fill="none" stroke="#56d8c9" stroke-width="2" d="M331.5,-182.5C331.5,-182.5 231.5,-182.5 231.5,-182.5 225.5,-182.5 219.5,-176.5 219.5,-170.5 219.5,-170.5 219.5,-158.5 219.5,-158.5 219.5,-152.5 225.5,-146.5 231.5,-146.5 231.5,-146.5 331.5,-146.5 331.5,-146.5 337.5,-146.5 343.5,-152.5 343.5,-158.5 343.5,-158.5 343.5,-170.5 343.5,-170.5 343.5,-176.5 337.5,-182.5 331.5,-182.5"/>
<text text-anchor="middle" x="281.5" y="-162" font-family="sans" font-size="10.00">register_template_to_fda</text>
</g>
<!-- 2&#45;&gt;1 -->
<g id="edge3" class="edge">
<title>2&#45;&gt;1</title>
<path fill="none" stroke="grey" stroke-width="2" d="M258.28,-146.32C245.34,-136.75 229.05,-124.7 214.98,-114.29"/>
<polygon fill="grey" stroke="grey" stroke-width="2" points="216.68,-111.19 206.56,-108.06 212.52,-116.82 216.68,-111.19"/>
</g>
<!-- 6 -->
<g id="node7" class="node">
<title>6</title>
<path fill="none" stroke="#d8a456" stroke-width="2" d="M455,-108C455,-108 302,-108 302,-108 296,-108 290,-102 290,-96 290,-96 290,-84 290,-84 290,-78 296,-72 302,-72 302,-72 455,-72 455,-72 461,-72 467,-78 467,-84 467,-84 467,-96 467,-96 467,-102 461,-108 455,-108"/>
<text text-anchor="middle" x="378.5" y="-87.5" font-family="sans" font-size="10.00">transform_dependent_images_to_fda</text>
</g>
<!-- 2&#45;&gt;6 -->
<g id="edge8" class="edge">
<title>2&#45;&gt;6</title>
<path fill="none" stroke="grey" stroke-width="2" d="M304.49,-146.32C317.29,-136.75 333.41,-124.7 347.34,-114.29"/>
<polygon fill="grey" stroke="grey" stroke-width="2" points="349.76,-116.85 355.68,-108.06 345.57,-111.24 349.76,-116.85"/>
</g>
<!-- 3 -->
<g id="node4" class="node">
<title>3</title>
<path fill="none" stroke="#56d87b" stroke-width="2" d="M309.5,-329C309.5,-329 253.5,-329 253.5,-329 247.5,-329 241.5,-323 241.5,-317 241.5,-317 241.5,-305 241.5,-305 241.5,-299 247.5,-293 253.5,-293 253.5,-293 309.5,-293 309.5,-293 315.5,-293 321.5,-299 321.5,-305 321.5,-305 321.5,-317 321.5,-317 321.5,-323 315.5,-329 309.5,-329"/>
<text text-anchor="middle" x="281.5" y="-308.5" font-family="sans" font-size="10.00">build_template</text>
</g>
<!-- 3&#45;&gt;2 -->
<g id="edge5" class="edge">
<title>3&#45;&gt;2</title>
<path fill="none" stroke="grey" stroke-width="2" d="M281.5,-292.86C281.5,-268.09 281.5,-222.05 281.5,-192.63"/>
<polygon fill="grey" stroke="grey" stroke-width="2" points="285,-192.62 281.5,-182.62 278,-192.62 285,-192.62"/>
</g>
<!-- 5 -->
<g id="node6" class="node">
<title>5</title>
<path fill="none" stroke="#78d856" stroke-width="2" d="M212.5,-257C212.5,-257 48.5,-257 48.5,-257 42.5,-257 36.5,-251 36.5,-245 36.5,-245 36.5,-233 36.5,-233 36.5,-227 42.5,-221 48.5,-221 48.5,-221 212.5,-221 212.5,-221 218.5,-221 224.5,-227 224.5,-233 224.5,-233 224.5,-245 224.5,-245 224.5,-251 218.5,-257 212.5,-257"/>
<text text-anchor="middle" x="130.5" y="-242" font-family="sans" font-size="10.00">register_structural_images_to_template</text>
<text text-anchor="middle" x="130.5" y="-231" font-family="sans" font-size="10.00">sample: sample_2</text>
</g>
<!-- 3&#45;&gt;5 -->
<g id="edge7" class="edge">
<title>3&#45;&gt;5</title>
<path fill="none" stroke="grey" stroke-width="2" d="M244.56,-292.88C224.01,-283.35 198.25,-271.41 176.41,-261.28"/>
<polygon fill="grey" stroke="grey" stroke-width="2" points="177.86,-258.1 167.32,-257.07 174.92,-264.45 177.86,-258.1"/>
</g>
<!-- 8 -->
<g id="node9" class="node">
<title>8</title>
<path fill="none" stroke="#78d856" stroke-width="2" d="M514.5,-257C514.5,-257 350.5,-257 350.5,-257 344.5,-257 338.5,-251 338.5,-245 338.5,-245 338.5,-233 338.5,-233 338.5,-227 344.5,-221 350.5,-221 350.5,-221 514.5,-221 514.5,-221 520.5,-221 526.5,-227 526.5,-233 526.5,-233 526.5,-245 526.5,-245 526.5,-251 520.5,-257 514.5,-257"/>
<text text-anchor="middle" x="432.5" y="-242" font-family="sans" font-size="10.00">register_structural_images_to_template</text>
<text text-anchor="middle" x="432.5" y="-231" font-family="sans" font-size="10.00">sample: sample_1</text>
</g>
<!-- 3&#45;&gt;8 -->
<g id="edge11" class="edge">
<title>3&#45;&gt;8</title>
<path fill="none" stroke="grey" stroke-width="2" d="M318.44,-292.88C338.99,-283.35 364.75,-271.41 386.59,-261.28"/>
<polygon fill="grey" stroke="grey" stroke-width="2" points="388.08,-264.45 395.68,-257.07 385.14,-258.1 388.08,-264.45"/>
</g>
<!-- 4 -->
<g id="node5" class="node">
<title>4</title>
<path fill="none" stroke="#c6d856" stroke-width="2" d="M189,-185C189,-185 12,-185 12,-185 6,-185 0,-179 0,-173 0,-173 0,-156 0,-156 0,-150 6,-144 12,-144 12,-144 189,-144 189,-144 195,-144 201,-150 201,-156 201,-156 201,-173 201,-173 201,-179 195,-185 189,-185"/>
<text text-anchor="middle" x="100.5" y="-173" font-family="sans" font-size="10.00">transform_dependent_images_to_template</text>
<text text-anchor="middle" x="100.5" y="-162" font-family="sans" font-size="10.00">channel: channel_1</text>
<text text-anchor="middle" x="100.5" y="-151" font-family="sans" font-size="10.00">image: dependent_image</text>
</g>
<!-- 4&#45;&gt;1 -->
<g id="edge4" class="edge">
<title>4&#45;&gt;1</title>
<path fill="none" stroke="grey" stroke-width="2" d="M123.18,-143.69C133.35,-134.8 145.44,-124.24 156.12,-114.92"/>
<polygon fill="grey" stroke="grey" stroke-width="2" points="158.72,-117.29 163.95,-108.08 154.11,-112.02 158.72,-117.29"/>
</g>
<!-- 5&#45;&gt;4 -->
<g id="edge6" class="edge">
<title>5&#45;&gt;4</title>
<path fill="none" stroke="grey" stroke-width="2" d="M123.39,-220.82C120.13,-212.95 116.18,-203.4 112.48,-194.46"/>
<polygon fill="grey" stroke="grey" stroke-width="2" points="115.68,-193.02 108.62,-185.12 109.21,-195.7 115.68,-193.02"/>
</g>
<!-- 6&#45;&gt;0 -->
<g id="edge2" class="edge">
<title>6&#45;&gt;0</title>
<path fill="none" stroke="grey" stroke-width="2" d="M354.53,-71.88C341.95,-62.89 326.37,-51.76 312.75,-42.03"/>
<polygon fill="grey" stroke="grey" stroke-width="2" points="314.74,-39.15 304.57,-36.19 310.67,-44.85 314.74,-39.15"/>
</g>
<!-- 7 -->
<g id="node8" class="node">
<title>7</title>
<path fill="none" stroke="#c6d856" stroke-width="2" d="M551,-185C551,-185 374,-185 374,-185 368,-185 362,-179 362,-173 362,-173 362,-156 362,-156 362,-150 368,-144 374,-144 374,-144 551,-144 551,-144 557,-144 563,-150 563,-156 563,-156 563,-173 563,-173 563,-179 557,-185 551,-185"/>
<text text-anchor="middle" x="462.5" y="-173" font-family="sans" font-size="10.00">transform_dependent_images_to_template</text>
<text text-anchor="middle" x="462.5" y="-162" font-family="sans" font-size="10.00">channel: channel_1</text>
<text text-anchor="middle" x="462.5" y="-151" font-family="sans" font-size="10.00">image: dependent_image</text>
</g>
<!-- 7&#45;&gt;6 -->
<g id="edge9" class="edge">
<title>7&#45;&gt;6</title>
<path fill="none" stroke="grey" stroke-width="2" d="M439.55,-143.69C429.15,-134.72 416.78,-124.04 405.9,-114.65"/>
<polygon fill="grey" stroke="grey" stroke-width="2" points="408.14,-111.96 398.29,-108.08 403.57,-117.26 408.14,-111.96"/>
</g>
<!-- 8&#45;&gt;7 -->
<g id="edge10" class="edge">
<title>8&#45;&gt;7</title>
<path fill="none" stroke="grey" stroke-width="2" d="M439.61,-220.82C442.87,-212.95 446.82,-203.4 450.52,-194.46"/>
<polygon fill="grey" stroke="grey" stroke-width="2" points="453.79,-195.7 454.38,-185.12 447.32,-193.02 453.79,-195.7"/>
</g>
</g>
</svg>
